<svg width="200" height="200" viewBox="0 0 200 200" fill="none" xmlns="http://www.w3.org/2000/svg">
  <!-- Dark background -->
  <rect width="200" height="200" fill="#0B0E14"/>
  
  <!-- Logo centered -->
  <g transform="translate(68, 68)">
    <!-- Outer orbit ring -->
    <circle cx="32" cy="32" r="28" stroke="url(#orbitGradientDark)" stroke-width="1.5" stroke-dasharray="4 6"/>
    
    <!-- Middle orbit ring -->
    <circle cx="32" cy="32" r="20" stroke="url(#orbitGradient2Dark)" stroke-width="1" stroke-dasharray="3 5"/>
    
    <!-- Central shield/star shape -->
    <path d="M32 8L36.5 24.5L52 20L43.5 32L52 44L36.5 39.5L32 56L27.5 39.5L12 44L20.5 32L12 20L27.5 24.5L32 8Z" fill="url(#starGradientDark)"/>
    
    <!-- Inner core -->
    <circle cx="32" cy="32" r="8" fill="url(#coreGradientDark)"/>
    
    <!-- Central dot -->
    <circle cx="32" cy="32" r="3" fill="white"/>
    
    <!-- Constellation dots -->
    <circle cx="10" cy="18" r="1.5" fill="#00D4FF"/>
    <circle cx="54" cy="14" r="1" fill="#00D4FF"/>
    <circle cx="58" cy="42" r="1.5" fill="#00D4FF"/>
    <circle cx="8" cy="48" r="1" fill="#00D4FF"/>
    <circle cx="48" cy="56" r="1" fill="#00D4FF"/>
    <circle cx="16" cy="8" r="1" fill="#00D4FF"/>
    
    <!-- Constellation lines -->
    <line x1="10" y1="18" x2="16" y2="8" stroke="#00D4FF" stroke-width="0.5" opacity="0.4"/>
    <line x1="54" y1="14" x2="58" y2="42" stroke="#00D4FF" stroke-width="0.5" opacity="0.4"/>
    <line x1="8" y1="48" x2="48" y2="56" stroke="#00D4FF" stroke-width="0.5" opacity="0.4"/>
  </g>
  
  <!-- Gradients -->
  <defs>
    <linearGradient id="orbitGradientDark" x1="0%" y1="0%" x2="100%" y2="100%">
      <stop offset="0%" stop-color="#2E5CFF"/>
      <stop offset="100%" stop-color="#00D4FF"/>
    </linearGradient>
    
    <linearGradient id="orbitGradient2Dark" x1="100%" y1="0%" x2="0%" y2="100%">
      <stop offset="0%" stop-color="#00D4FF"/>
      <stop offset="100%" stop-color="#2E5CFF"/>
    </linearGradient>
    
    <linearGradient id="starGradientDark" x1="100" y1="76" x2="100" y2="124" gradientUnits="userSpaceOnUse">
      <stop offset="0%" stop-color="#2E5CFF"/>
      <stop offset="50%" stop-color="#1E4FCC"/>
      <stop offset="100%" stop-color="#00A3CC"/>
    </linearGradient>
    
    <radialGradient id="coreGradientDark" cx="100" cy="100" r="8" gradientUnits="userSpaceOnUse">
      <stop offset="0%" stop-color="#7DD3FC"/>
      <stop offset="100%" stop-color="#2E5CFF"/>
    </radialGradient>
  </defs>
</svg>